<svg width="222" height="48" viewBox="0 0 222 48" fill="none" xmlns="http://www.w3.org/2000/svg">
<g id="name">
<path d="M111 28.3237L131.002 48L135.398 43.6763L115.395 24L135.398 4.32373L131.002 0L111 19.6763L90.9977 0L86.6023 4.32373L106.605 24L86.6023 43.6763L90.9977 48L111 28.3237Z" fill="currentColor"/>
<path d="M25.308 8.27655H44.4V2.16187H0V8.27655H19.092V45.8381H25.308V8.27655Z" fill="currentColor"/>
<path d="M63.492 45.8381V2.16187H69.708V45.8381H63.492Z" fill="currentColor"/>
<path d="M152.292 2.16187V45.8381H158.508V2.16187H152.292Z" fill="currentColor"/>
<path fill-rule="evenodd" clip-rule="evenodd" d="M199.8 39.7454C208.628 39.7454 215.784 32.7058 215.784 24.0219C215.784 15.3381 208.628 8.29849 199.8 8.29849H183.816V39.7454H199.8ZM199.8 45.8601C212.061 45.8601 222 36.0828 222 24.0219C222 11.9611 212.061 2.18381 199.8 2.18381H177.6V45.8601H199.8Z" fill="currentColor"/>
</g>
</svg>
