<svg width="220" height="10" viewBox="0 0 220 10" fill="none" xmlns="http://www.w3.org/2000/svg">
<g id="&#209;&#150;&#208;&#189;&#209;&#136;&#208;&#184;&#208;&#185; &#209;&#129;&#208;&#191;&#208;&#190;&#209;&#129;&#209;&#150;&#208;&#177; &#208;&#179;&#209;&#128;&#208;&#176;&#209;&#130;&#208;&#184; &#209;&#131; &#208;&#148;&#209;&#150;&#208;&#186;&#209;&#129;&#209;&#150;&#209;&#130;">
<path id="Vector" d="M217.156 1.58643V7.98486H216.321V1.58643H217.156ZM219.212 1.58643V2.28076H214.269V1.58643H219.212Z" fill="#818F99"/>
<path id="Vector_2" d="M210.051 1.58643V7.98486H209.203V1.58643H210.051Z" fill="#818F99"/>
<path id="Vector_3" d="M203.812 5.9502H204.655C204.611 6.35449 204.496 6.71631 204.308 7.03564C204.121 7.35498 203.855 7.6084 203.513 7.7959C203.17 7.98047 202.742 8.07275 202.229 8.07275C201.854 8.07275 201.513 8.00244 201.206 7.86182C200.901 7.72119 200.639 7.52197 200.419 7.26416C200.199 7.00342 200.029 6.69141 199.909 6.32812C199.792 5.96191 199.733 5.55469 199.733 5.10645V4.46924C199.733 4.021 199.792 3.61523 199.909 3.25195C200.029 2.88574 200.201 2.57227 200.423 2.31152C200.649 2.05078 200.92 1.8501 201.236 1.70947C201.553 1.56885 201.909 1.49854 202.304 1.49854C202.788 1.49854 203.196 1.58936 203.53 1.771C203.864 1.95264 204.124 2.20459 204.308 2.52686C204.496 2.84619 204.611 3.2168 204.655 3.63867H203.812C203.771 3.33984 203.694 3.0835 203.583 2.86963C203.472 2.65283 203.313 2.48584 203.108 2.36865C202.903 2.25146 202.635 2.19287 202.304 2.19287C202.02 2.19287 201.77 2.24707 201.553 2.35547C201.339 2.46387 201.159 2.61768 201.012 2.81689C200.869 3.01611 200.76 3.25488 200.687 3.5332C200.614 3.81152 200.577 4.12061 200.577 4.46045V5.10645C200.577 5.41992 200.609 5.71436 200.674 5.98975C200.741 6.26514 200.842 6.50684 200.977 6.71484C201.112 6.92285 201.283 7.08691 201.491 7.20703C201.699 7.32422 201.945 7.38281 202.229 7.38281C202.59 7.38281 202.877 7.32568 203.091 7.21143C203.305 7.09717 203.466 6.93311 203.574 6.71924C203.686 6.50537 203.765 6.24902 203.812 5.9502Z" fill="#818F99"/>
<path id="Vector_4" d="M191.864 1.58643V7.98486H191.016V1.58643H191.864ZM195.806 1.58643L193.028 5.10645H191.525L191.394 4.40332H192.523L194.755 1.58643H195.806ZM194.953 7.98486L192.549 4.99658L193.024 4.25391L195.99 7.98486H194.953Z" fill="#818F99"/>
<path id="Vector_5" d="M186.104 1.58643V7.98486H185.256V1.58643H186.104Z" fill="#818F99"/>
<path id="Vector_6" d="M180.128 7.29492V7.98486H175.286V7.29492H180.128ZM175.422 7.29492V9.55811H174.583L174.578 7.29492H175.422ZM180.867 7.29492L180.858 9.55371H180.019V7.29492H180.867ZM179.298 1.58643V2.28076H176.494V1.58643H179.298ZM180.027 1.58643V7.98486H179.184V1.58643H180.027ZM176.204 1.58643H177.052L176.92 4.16162C176.903 4.54834 176.866 4.90576 176.811 5.23389C176.755 5.55908 176.686 5.85645 176.604 6.12598C176.522 6.39551 176.428 6.63721 176.323 6.85107C176.217 7.06201 176.104 7.24512 175.984 7.40039C175.864 7.55273 175.738 7.67871 175.606 7.77832C175.478 7.875 175.347 7.94385 175.215 7.98486H174.829V7.29492H175.101C175.177 7.21289 175.264 7.09424 175.36 6.93896C175.46 6.78369 175.558 6.58301 175.655 6.33691C175.754 6.08789 175.841 5.78467 175.914 5.42725C175.99 5.06982 176.042 4.64795 176.068 4.16162L176.204 1.58643Z" fill="#818F99"/>
<path id="Vector_7" d="M162.526 5.8623L164.218 1.58643H165.193L162.93 6.91699C162.866 7.06641 162.794 7.21143 162.715 7.35205C162.636 7.48975 162.539 7.61279 162.425 7.72119C162.311 7.82959 162.168 7.91602 161.999 7.98047C161.832 8.04492 161.624 8.07715 161.375 8.07715C161.304 8.07715 161.221 8.07275 161.124 8.06396C161.027 8.05811 160.964 8.05078 160.935 8.04199L160.961 7.36523C160.994 7.37109 161.057 7.37695 161.15 7.38281C161.244 7.38574 161.313 7.38721 161.357 7.38721C161.524 7.38721 161.656 7.35352 161.752 7.28613C161.849 7.21875 161.927 7.13379 161.985 7.03125C162.047 6.92578 162.103 6.81885 162.152 6.71045L162.526 5.8623ZM161.089 1.58643L162.869 5.57227L163.08 6.35889L162.368 6.41162L160.14 1.58643H161.089Z" fill="#818F99"/>
<path id="Vector_8" d="M146.11 6.51709L149.261 1.58643H150.109V7.98486H149.261V3.0498L146.11 7.98486H145.266V1.58643H146.11V6.51709Z" fill="#818F99"/>
<path id="Vector_9" d="M138.891 1.58643V7.98486H138.056V1.58643H138.891ZM140.948 1.58643V2.28076H136.004V1.58643H140.948Z" fill="#818F99"/>
<path id="Vector_10" d="M130.266 2.15332L128.147 7.98486H127.282L129.721 1.58643H130.279L130.266 2.15332ZM132.041 7.98486L129.918 2.15332L129.905 1.58643H130.463L132.911 7.98486H132.041ZM131.931 5.61621V6.31055H128.336V5.61621H131.931Z" fill="#818F99"/>
<path id="Vector_11" d="M121.855 5.47559H120.146V4.78564H121.855C122.187 4.78564 122.455 4.73291 122.66 4.62744C122.865 4.52197 123.014 4.37549 123.108 4.18799C123.205 4.00049 123.253 3.78662 123.253 3.54639C123.253 3.32666 123.205 3.12012 123.108 2.92676C123.014 2.7334 122.865 2.57812 122.66 2.46094C122.455 2.34082 122.187 2.28076 121.855 2.28076H120.344V7.98486H119.496V1.58643H121.855C122.339 1.58643 122.748 1.66992 123.082 1.83691C123.416 2.00391 123.669 2.23535 123.842 2.53125C124.015 2.82422 124.101 3.15967 124.101 3.5376C124.101 3.94775 124.015 4.29785 123.842 4.58789C123.669 4.87793 123.416 5.09912 123.082 5.25146C122.748 5.40088 122.339 5.47559 121.855 5.47559Z" fill="#818F99"/>
<path id="Vector_12" d="M115.124 1.58643V2.28076H112.039V7.98486H111.195V1.58643H115.124Z" fill="#818F99"/>
<path id="Vector_13" d="M100.488 1.58643V2.28076H97.4028V7.98486H96.5591V1.58643H100.488ZM97.2051 4.19238H98.9497C99.4185 4.19238 99.814 4.27148 100.136 4.42969C100.458 4.58496 100.703 4.80322 100.87 5.08447C101.037 5.36572 101.121 5.69531 101.121 6.07324C101.121 6.35449 101.074 6.6123 100.98 6.84668C100.886 7.07812 100.747 7.28027 100.562 7.45312C100.378 7.62305 100.151 7.75488 99.8813 7.84863C99.6118 7.93945 99.3013 7.98486 98.9497 7.98486H96.5591V1.58643H97.4072V7.29492H98.9497C99.2632 7.29492 99.5166 7.23779 99.71 7.12354C99.9062 7.00635 100.05 6.854 100.141 6.6665C100.231 6.479 100.277 6.27832 100.277 6.06445C100.277 5.85059 100.231 5.6543 100.141 5.47559C100.05 5.29688 99.9062 5.15479 99.71 5.04932C99.5166 4.94092 99.2632 4.88672 98.9497 4.88672H97.2051V4.19238Z" fill="#818F99"/>
<path id="Vector_14" d="M91.7129 1.58643V7.98486H90.8647V1.58643H91.7129Z" fill="#818F99"/>
<path id="Vector_15" d="M85.4741 5.9502H86.3179C86.2739 6.35449 86.1582 6.71631 85.9707 7.03564C85.7832 7.35498 85.5181 7.6084 85.1753 7.7959C84.8325 7.98047 84.4048 8.07275 83.8921 8.07275C83.5171 8.07275 83.1758 8.00244 82.8682 7.86182C82.5635 7.72119 82.3013 7.52197 82.0815 7.26416C81.8618 7.00342 81.6919 6.69141 81.5718 6.32812C81.4546 5.96191 81.396 5.55469 81.396 5.10645V4.46924C81.396 4.021 81.4546 3.61523 81.5718 3.25195C81.6919 2.88574 81.8633 2.57227 82.0859 2.31152C82.3115 2.05078 82.5825 1.8501 82.8989 1.70947C83.2153 1.56885 83.5713 1.49854 83.9668 1.49854C84.4502 1.49854 84.8589 1.58936 85.1929 1.771C85.5269 1.95264 85.7861 2.20459 85.9707 2.52686C86.1582 2.84619 86.2739 3.2168 86.3179 3.63867H85.4741C85.4331 3.33984 85.3569 3.0835 85.2456 2.86963C85.1343 2.65283 84.9761 2.48584 84.771 2.36865C84.5659 2.25146 84.2979 2.19287 83.9668 2.19287C83.6826 2.19287 83.4321 2.24707 83.2153 2.35547C83.0015 2.46387 82.8213 2.61768 82.6748 2.81689C82.5312 3.01611 82.4229 3.25488 82.3496 3.5332C82.2764 3.81152 82.2397 4.12061 82.2397 4.46045V5.10645C82.2397 5.41992 82.272 5.71436 82.3364 5.98975C82.4038 6.26514 82.5049 6.50684 82.6396 6.71484C82.7744 6.92285 82.9458 7.08691 83.1538 7.20703C83.3618 7.32422 83.6079 7.38281 83.8921 7.38281C84.2524 7.38281 84.5396 7.32568 84.7534 7.21143C84.9673 7.09717 85.1284 6.93311 85.2368 6.71924C85.3481 6.50537 85.4272 6.24902 85.4741 5.9502Z" fill="#818F99"/>
<path id="Vector_16" d="M77.0112 4.5835V4.98779C77.0112 5.46826 76.9512 5.89893 76.8311 6.27979C76.7109 6.66064 76.5381 6.98438 76.3125 7.25098C76.0869 7.51758 75.8159 7.72119 75.4995 7.86182C75.186 8.00244 74.8345 8.07275 74.4448 8.07275C74.0669 8.07275 73.7197 8.00244 73.4033 7.86182C73.0898 7.72119 72.8174 7.51758 72.5859 7.25098C72.3574 6.98438 72.1802 6.66064 72.0542 6.27979C71.9282 5.89893 71.8652 5.46826 71.8652 4.98779V4.5835C71.8652 4.10303 71.9268 3.67383 72.0498 3.2959C72.1758 2.91504 72.353 2.59131 72.5815 2.32471C72.8101 2.05518 73.0811 1.8501 73.3945 1.70947C73.7109 1.56885 74.0581 1.49854 74.436 1.49854C74.8257 1.49854 75.1772 1.56885 75.4907 1.70947C75.8071 1.8501 76.0781 2.05518 76.3037 2.32471C76.5322 2.59131 76.7065 2.91504 76.8267 3.2959C76.9497 3.67383 77.0112 4.10303 77.0112 4.5835ZM76.1719 4.98779V4.57471C76.1719 4.19385 76.1323 3.85693 76.0532 3.56396C75.9771 3.271 75.8643 3.0249 75.7148 2.82568C75.5654 2.62646 75.3823 2.47559 75.1655 2.37305C74.9517 2.27051 74.7085 2.21924 74.436 2.21924C74.1724 2.21924 73.9336 2.27051 73.7197 2.37305C73.5088 2.47559 73.3271 2.62646 73.1748 2.82568C73.0254 3.0249 72.9097 3.271 72.8276 3.56396C72.7456 3.85693 72.7046 4.19385 72.7046 4.57471V4.98779C72.7046 5.37158 72.7456 5.71143 72.8276 6.00732C72.9097 6.30029 73.0269 6.54785 73.1792 6.75C73.3345 6.94922 73.5176 7.1001 73.7285 7.20264C73.9424 7.30518 74.1812 7.35645 74.4448 7.35645C74.7202 7.35645 74.9648 7.30518 75.1787 7.20264C75.3926 7.1001 75.5728 6.94922 75.7192 6.75C75.8687 6.54785 75.9814 6.30029 76.0576 6.00732C76.1338 5.71143 76.1719 5.37158 76.1719 4.98779Z" fill="#818F99"/>
<path id="Vector_17" d="M67.2168 1.58643V7.98486H66.373V2.28076H63.2178V7.98486H62.3696V1.58643H67.2168Z" fill="#818F99"/>
<path id="Vector_18" d="M57.0005 5.9502H57.8442C57.8003 6.35449 57.6846 6.71631 57.4971 7.03564C57.3096 7.35498 57.0444 7.6084 56.7017 7.7959C56.3589 7.98047 55.9312 8.07275 55.4185 8.07275C55.0435 8.07275 54.7021 8.00244 54.3945 7.86182C54.0898 7.72119 53.8276 7.52197 53.6079 7.26416C53.3882 7.00342 53.2183 6.69141 53.0981 6.32812C52.981 5.96191 52.9224 5.55469 52.9224 5.10645V4.46924C52.9224 4.021 52.981 3.61523 53.0981 3.25195C53.2183 2.88574 53.3896 2.57227 53.6123 2.31152C53.8379 2.05078 54.1089 1.8501 54.4253 1.70947C54.7417 1.56885 55.0977 1.49854 55.4932 1.49854C55.9766 1.49854 56.3853 1.58936 56.7192 1.771C57.0532 1.95264 57.3125 2.20459 57.4971 2.52686C57.6846 2.84619 57.8003 3.2168 57.8442 3.63867H57.0005C56.9595 3.33984 56.8833 3.0835 56.772 2.86963C56.6606 2.65283 56.5024 2.48584 56.2974 2.36865C56.0923 2.25146 55.8242 2.19287 55.4932 2.19287C55.209 2.19287 54.9585 2.24707 54.7417 2.35547C54.5278 2.46387 54.3477 2.61768 54.2012 2.81689C54.0576 3.01611 53.9492 3.25488 53.876 3.5332C53.8027 3.81152 53.7661 4.12061 53.7661 4.46045V5.10645C53.7661 5.41992 53.7983 5.71436 53.8628 5.98975C53.9302 6.26514 54.0312 6.50684 54.166 6.71484C54.3008 6.92285 54.4722 7.08691 54.6802 7.20703C54.8882 7.32422 55.1343 7.38281 55.4185 7.38281C55.7788 7.38281 56.0659 7.32568 56.2798 7.21143C56.4937 7.09717 56.6548 6.93311 56.7632 6.71924C56.8745 6.50537 56.9536 6.24902 57.0005 5.9502Z" fill="#818F99"/>
<path id="Vector_19" d="M38.7036 6.51709L41.8545 1.58643H42.7026V7.98486H41.8545V3.0498L38.7036 7.98486H37.8599V1.58643H38.7036V6.51709ZM40.9536 0H41.6128C41.6128 0.228516 41.5601 0.432129 41.4546 0.61084C41.3491 0.786621 41.1982 0.924316 41.002 1.02393C40.8057 1.12354 40.5728 1.17334 40.3032 1.17334C39.896 1.17334 39.5737 1.06494 39.3364 0.848145C39.1021 0.628418 38.9849 0.345703 38.9849 0H39.644C39.644 0.172852 39.6938 0.325195 39.7935 0.457031C39.8931 0.588867 40.063 0.654785 40.3032 0.654785C40.5376 0.654785 40.7046 0.588867 40.8042 0.457031C40.9038 0.325195 40.9536 0.172852 40.9536 0Z" fill="#818F99"/>
<path id="Vector_20" d="M28.9492 6.51709L32.1001 1.58643H32.9482V7.98486H32.1001V3.0498L28.9492 7.98486H28.1055V1.58643H28.9492V6.51709Z" fill="#818F99"/>
<path id="Vector_21" d="M16.2939 1.58643H17.1465V7.29492H19.3438V1.58643H20.1875V7.29492H22.3716V1.58643H23.2197V7.98486H16.2939V1.58643Z" fill="#818F99"/>
<path id="Vector_22" d="M10.6875 4.3374V5.02734H7.22461V4.3374H10.6875ZM7.35645 1.58643V7.98486H6.5083V1.58643H7.35645ZM11.4258 1.58643V7.98486H10.582V1.58643H11.4258Z" fill="#818F99"/>
<path id="Vector_23" d="M1.63574 1.58643V7.98486H0.787598V1.58643H1.63574Z" fill="#818F99"/>
</g>
</svg>
